<svg width="18" height="18" viewBox="0 0 18 18" fill="none" xmlns="http://www.w3.org/2000/svg">
<mask id="path-1-inside-1_7_13284" fill="white">
<path d="M0.813227 8.77407C0.813228 7.68571 1.0276 6.60801 1.4441 5.60249C1.86059 4.59697 2.47107 3.68334 3.24065 2.91375C4.01024 2.14416 4.92388 1.53369 5.9294 1.11719C6.93491 0.70069 8.01262 0.486322 9.10098 0.486322C10.1893 0.486322 11.2671 0.700691 12.2726 1.11719C13.2781 1.53369 14.1917 2.14416 14.9613 2.91375C15.7309 3.68334 16.3414 4.59697 16.7579 5.60249C17.1744 6.60801 17.3887 7.68571 17.3887 8.77408L9.10098 8.77407L0.813227 8.77407Z"/>
</mask>
<path d="M0.813227 8.77407C0.813228 7.68571 1.0276 6.60801 1.4441 5.60249C1.86059 4.59697 2.47107 3.68334 3.24065 2.91375C4.01024 2.14416 4.92388 1.53369 5.9294 1.11719C6.93491 0.70069 8.01262 0.486322 9.10098 0.486322C10.1893 0.486322 11.2671 0.700691 12.2726 1.11719C13.2781 1.53369 14.1917 2.14416 14.9613 2.91375C15.7309 3.68334 16.3414 4.59697 16.7579 5.60249C17.1744 6.60801 17.3887 7.68571 17.3887 8.77408L9.10098 8.77407L0.813227 8.77407Z" fill="url(#paint0_linear_7_13284)" fill-opacity="0.5" stroke="#AFAFB0" stroke-width="2.48633" mask="url(#path-1-inside-1_7_13284)"/>
<circle cx="9.10111" cy="8.77408" r="7.66617" stroke="#AFAFB0" stroke-width="1.24316"/>
<circle cx="9.10101" cy="8.77404" r="2.39215" fill="#FEFEFE" stroke="#AFAFB0" stroke-width="1.24316"/>
<path d="M6.4641 8.77405H0.813354" stroke="#AFAFB0" stroke-width="1.24316"/>
<path d="M16.4617 8.77405L11.2456 8.77405" stroke="#AFAFB0" stroke-width="1.24316"/>
<defs>
<linearGradient id="paint0_linear_7_13284" x1="19.8751" y1="0.486322" x2="-1.6731" y2="8.35969" gradientUnits="userSpaceOnUse">
<stop stop-color="#AFAFB0"/>
<stop offset="1" stop-color="#D4D7DE"/>
</linearGradient>
</defs>
</svg>
